# Blender 4.2.3 LTS
# www.blender.org
mtllib skirting-1.mtl
o SMB_Straignt
v 2.437773 0.895119 0.023406
v 1.951498 1.118899 0.000000
v 2.437773 0.928686 0.023406
v 2.437773 1.118899 -0.000000
v 1.951498 0.000000 0.093624
v 2.437773 0.000000 0.093624
v 1.951498 0.190213 0.023406
v 2.437773 0.190213 0.023406
v 2.437773 0.895119 0.037450
v 2.437773 0.223780 0.037450
v 1.951498 0.895119 0.037450
v 1.951498 0.223780 0.037450
v 1.951498 0.223780 0.023406
v 2.437773 0.223780 0.023406
v 2.437773 0.928686 0.037450
v 1.951498 0.928686 0.037450
v 1.951498 0.895119 0.023406
v 2.437773 0.190213 0.037450
v 1.951498 0.190213 0.037450
v 1.951498 0.928686 0.023406
v 1.951498 1.051765 0.037450
v 1.951498 1.118899 0.009362
v 2.437773 1.118899 0.009362
v 2.437773 1.051765 0.037450
v 2.437773 0.038043 0.093624
v 1.951498 0.038043 0.093624
vn -0.0000 -0.0000 1.0000
vn -0.0000 1.0000 -0.0000
vn -0.0000 -1.0000 -0.0000
vn -0.0000 0.3860 0.9225
vn -0.0000 0.3463 0.9381
vt 0.563500 0.453074
vt 0.563500 0.456883
vt 0.436500 0.456883
vt 0.436500 0.453074
vt 0.563500 0.536893
vt 0.563500 0.550864
vt 0.436500 0.550864
vt 0.436500 0.536893
vt 0.500423 0.436500
vt 0.500423 0.563500
vt 0.496613 0.563500
vt 0.496613 0.436500
vt 0.563500 0.533083
vt 0.436500 0.533083
vt 0.492803 0.563500
vt 0.492803 0.436500
vt 0.490263 0.563500
vt 0.490263 0.436500
vt 0.563500 0.431484
vt 0.563500 0.435802
vt 0.436500 0.435802
vt 0.436500 0.431484
s 0
usemtl Basic_PBR_Dirt_Socket
f 8/1/1 14/2/1 13/3/1 7/4/1
f 15/5/1 24/6/1 21/7/1 16/8/1
f 11/9/2 9/10/2 1/11/2 17/12/2
f 10/10/3 12/9/3 13/12/3 14/11/3
f 10/2/1 9/13/1 11/14/1 12/3/1
f 19/9/2 18/10/2 8/11/2 7/12/2
f 15/10/3 16/9/3 20/12/3 3/11/3
f 1/13/1 3/5/1 20/8/1 17/14/1
f 23/15/4 22/16/4 21/9/4 24/10/4
f 23/15/2 4/17/2 2/18/2 22/16/2
f 6/19/1 25/20/1 26/21/1 5/22/1
f 25/20/5 18/1/5 19/4/5 26/21/5
